<mxfile host="app.diagrams.net" modified="2024-02-13T06:38:08.876Z" agent="Mozilla/5.0 (Windows NT 10.0; Win64; x64) AppleWebKit/537.36 (KHTML, like Gecko) Chrome/121.0.0.0 Safari/537.36" version="21.4.0" etag="wW5XQNZkzNfo7NV2tbKV" type="github">
  <diagram name="Page-1" id="b3WH1kb2kSOTl8r4VfEf">
    <mxGraphModel>
      <root>
        <mxCell id="0" />
        <mxCell id="1" parent="0" />
      </root>
    </mxGraphModel>
  </diagram>
</mxfile>
